. 
 
http://www.torrenting.com          :     Once & For all ;)


               www . Torrenting . Com 

(((((((((((((= Enjoy No RAR releases =))))))))))))))))))))


...................................NFO:....................................

.[IMG]http://img6.imageshack.us/img6/8974/apollo18540x800.jpg[/IMG]



[color=blue][size=5][b]Apollo.18.2011.R5.DVDRip.XVID.AC3-5.1.HQ.Hive-CM8[/b][/size][/color]


[b]Thx Hive

CM8 Doing It Right The First Time :D

Sources:

Video: Russian DVD-5
Audio: Mistere + Russian AC3 Effects
thx

Encode:

DVD Quality was ok, there are 5 different AR throughout the movie switching constantly, this movie is meant to be that way. only cropped the small constant visible black borders above and below, no need for them anyway.
did the usual cleanup for the video, added sharpness,rgb and denoise.
cleaned the line and entered it back into the russian 5.1 track.
there isnt much voice in the movie mostly effects and here the russian effects come in handy.
got nice
enjoy

Video: 720x384 @bitrate 1700 2pass
Audio: English AC3 5.1 @384
Sample: yes included[/b]


[url]http://www.imdb.com/title/tt1772240/[/url]


General
Complete name                  : Apollo.18.2011.R5.DVDRip.XVID.AC3-5.1.HQ.Hive-CM8.avi
Format                         : AVI
Format/Info                    : Audio Video Interleave
File size                      : 1.21 GiB
Duration                       : 1h 23mn
Overall bit rate               : 2 091 Kbps
Writing application            : Nandub v1.0rc2
Writing library                : Nandub build 1853/release

Video
ID                             : 0
Format                         : MPEG-4 Visual
Format profile                 : Advanced Simple@L5
Format settings, BVOP          : 2
Format settings, QPel          : Yes
Format settings, GMC           : No warppoints
Format settings, Matrix        : Default (H.263)
Muxing mode                    : Packed bitstream
Codec ID                       : XVID
Codec ID/Hint                  : XviD
Duration                       : 1h 23mn
Bit rate                       : 1 697 Kbps
Width                          : 720 pixels
Height                         : 384 pixels
Display aspect ratio           : 1.875
Frame rate                     : 25.000 fps
Color space                    : YUV
Chroma subsampling             : 4:2:0
Bit depth                      : 8 bits
Scan type                      : Progressive
Compression mode               : Lossy
Bits/(Pixel*Frame)             : 0.245
Stream size                    : 1 009 MiB (81%)
Writing library                : XviD 1.2.1 (UTC 2008-12-04)

Audio
ID                             : 1
Format                         : AC-3
Format/Info                    : Audio Coding 3
Mode extension                 : CM (complete main)
Codec ID                       : 2000
Duration                       : 1h 23mn
Bit rate mode                  : Constant
Bit rate                       : 384 Kbps
Channel(s)                     : 6 channels
Channel positions              : Front: L C R, Side: L R, LFE
Sampling rate                  : 48.0 KHz
Bit depth                      : 16 bits
Compression mode               : Lossy
Stream size                    : 228 MiB (18%)
Alignment                      : Split accross interleaves
Interleave, duration           : 40 ms (1.00 video frame)
Interleave, preload duration   : 500 ms

Plot:

Decades-old found footage from NASA's abandoned Apollo 18 mission, where two American astronauts were sent on a secret expedition, reveals the reason the U.S. has never returned to the moon. 

Cast:

Warren Christie	... 	Capt. Benjamin Anderson
Ryan Robbins	... 	Lt. Col. John Grey
Ali Liebert	... 	Nate's Girlfriend
Lloyd Owen	... 	Cdr. Nathan Walker
Andrew Airlie	... 	Mission Control


[img]http://img403.imageshack.us/img403/782/21107363.png[/img]
[img]http://img690.imageshack.us/img690/8481/apap.png[/img]
[img]http://img97.imageshack.us/img97/9522/apapap.png[/img]
[img]http://img249.imageshack.us/img249/3894/apapapap.png[/img]
[img]http://img215.imageshack.us/img215/7443/apapapapap.png[/img]





Greetz

ViSiON,SPK,SiC,SANTi,3LT0N,FUSiON,YanKeeS,MAGNET,THC,T0XiC,LKRG,FANTASIA-PLAY,FANTASIA-M,FLAWL3SS,
WBZ,ZMG,BHRG,NOVA,D2U,Vik,Rapeseed,SAFC,goldadvance,MEMORY100,KaN1vE,Unevano,Pinnz,Wayne
Mr Hive,and all P2P groups
Great Work Guys :D

LOOKING FOR ANYTHING YOU WANT TO LOOK AND SOUND BETTER

CM8@hushmail.com